<svg version="1.1" xmlns="http://www.w3.org/2000/svg" xmlns:xlink="http://www.w3.org/1999/xlink" x="0px" y="0px"
	 viewBox="0 0 1122 1122" style="enable-background:new 0 0 1122 1122;" xml:space="preserve">
<defs>
  <mask id="mask" x="0" y="0" width="100%" height="100%">
    <rect x="0" y="0" width="100%" height="100%" fill="#FFFFFF"/>
    <circle cx="561" cy="561" r="561" fill="#09f"/>
  </mask>
</defs>
<g id="Bg" mask="url(#mask)">
	<rect style="fill:none;" width="1122" height="1122"/>
</g>
<g id="Object">
	<g>
		<polygon style="fill:none;" points="935.053,585.916 935.053,445.605 913.629,452.867 913.629,585.916 		"/>
		<path style="fill:#FFFFFF;" d="M806.217,529.078l-240.024,81.388c-2.203,0.76-4.527,1.135-6.839,1.135
			c-2.318,0-4.66-0.375-6.863-1.135l-240.012-81.388v201.289h0.254l-0.545,2.766c0,23.948,110.674,77.412,247.021,77.412
			c136.341,0,246.724-53.464,246.724-77.412l-0.563-2.766h0.847V529.078z"/>
		<polygon style="fill:#FFFFFF;" points="312.478,489.302 559.354,573.013 806.217,489.302 913.629,452.867 935.053,445.605 
			946.334,441.78 559.354,311.456 172.355,441.78 		"/>
		<path style="fill:#FFFFFF;" d="M899.032,618.791v81.917c0,13.977,11.317,25.304,25.31,25.304c13.98,0,25.304-11.327,25.304-25.304
			v-81.917c0-6.92-2.79-13.187-7.281-17.751H906.33C901.834,605.604,899.032,611.871,899.032,618.791z"/>
		<polygon style="fill:#FFFFFF;" points="903.099,585.916 903.099,601.04 906.33,601.04 942.364,601.04 945.572,601.04 
			945.572,585.916 935.053,585.916 913.629,585.916 		"/>
	</g>
</g>
</svg>
